<?xml version="1.0" standalone="no"?>
<!DOCTYPE svg PUBLIC "-//W3C//DTD SVG 20010904//EN"
 "http://www.w3.org/TR/2001/REC-SVG-20010904/DTD/svg10.dtd">
<svg version="1.0" xmlns="http://www.w3.org/2000/svg"
 width="200.000000pt" height="200.000000pt" viewBox="0 0 200.000000 200.000000"
 preserveAspectRatio="xMidYMid meet">
<metadata>
Created by potrace 1.10, written by Peter Selinger 2001-2011
</metadata>
<g transform="translate(0.000000,200.000000) scale(0.100000,-0.100000)"
fill="#000000" stroke="none">
<path d="M1105 1559 c-236 -138 -434 -254 -440 -260 -17 -17 18 -36 147 -78
l127 -42 46 -139 c45 -136 61 -166 81 -152 5 4 40 48 77 99 l68 91 105 -45
c57 -25 107 -43 111 -40 6 7 143 769 143 799 0 11 -7 18 -17 17 -10 0 -211
-113 -448 -250z m439 184 c-8 -59 -12 -67 -28 -54 -15 12 -54 -28 -105 -107
-18 -28 -40 -56 -49 -64 -15 -11 -15 -10 1 8 20 24 22 40 5 50 -7 5 -8 3 -3
-5 4 -7 -1 -22 -13 -34 -11 -12 -79 -104 -151 -205 -125 -174 -131 -186 -144
-255 -13 -71 -13 -72 -25 -39 -8 24 -8 32 1 32 7 0 6 4 -3 10 -8 5 -21 29 -30
54 l-15 45 188 191 c103 105 185 195 183 199 -3 4 15 32 39 60 45 53 50 61 38
61 -3 0 -113 -106 -243 -235 l-236 -235 -108 36 c-59 20 -106 37 -104 39 2 2
145 85 318 185 173 101 325 189 338 198 23 15 32 39 10 26 -9 -5 -10 -4 -3 3
9 9 135 82 143 83 2 0 0 -21 -4 -47z m-43 -114 c-5 -24 -31 -163 -57 -309 -25
-146 -48 -266 -49 -268 -2 -2 -47 16 -101 39 -55 23 -114 48 -131 55 l-33 14
33 43 c17 23 102 140 187 259 84 120 156 216 157 214 2 -2 -1 -23 -6 -47z
m-761 -314 c-7 -8 -10 -22 -6 -30 7 -19 -5 -19 -30 1 -17 14 -17 15 -1 10 10
-3 15 -2 12 3 -3 6 3 14 12 20 25 14 27 13 13 -4z m230 -119 c-7 -7 -13 -7
-20 0 -6 6 -3 10 10 10 13 0 16 -4 10 -10z m145 -27 c-4 -6 1 -17 11 -25 15
-13 16 -15 3 -11 -9 3 -22 0 -28 -6 -8 -8 -11 -6 -11 9 0 11 5 25 12 32 15 15
21 16 13 1z m13 -130 c-23 -32 -43 -58 -44 -56 -1 1 5 32 13 69 l15 66 29 -10
28 -10 -41 -59z m109 56 c-8 -7 -61 -15 -55 -9 4 4 3 13 -3 20 -8 10 -3 10 25
2 20 -6 35 -12 33 -13z m178 -65 c-3 -5 -11 -10 -16 -10 -6 0 -7 5 -4 10 3 6
11 10 16 10 6 0 7 -4 4 -10z m-362 -21 c13 10 16 8 19 -11 2 -14 9 -23 20 -22
14 1 14 -3 -5 -32 -27 -41 -32 -42 -45 -6 -17 42 -26 90 -14 73 9 -12 13 -12
25 -2z"/>
<path d="M445 880 c-14 -22 62 -77 91 -66 24 9 16 25 -26 51 -44 28 -56 30
-65 15z"/>
<path d="M858 854 c-28 -15 -36 -38 -18 -49 16 -10 72 24 68 42 -4 23 -18 25
-50 7z"/>
<path d="M612 808 c-21 -21 6 -38 59 -38 42 0 49 3 49 20 0 16 -7 20 -34 20
-19 0 -40 2 -48 5 -7 3 -19 0 -26 -7z"/>
<path d="M1126 698 c-32 -49 -47 -102 -56 -201 -10 -107 -7 -137 14 -137 18 0
31 18 45 62 7 20 19 42 27 49 14 11 15 8 9 -34 -8 -53 4 -77 38 -77 11 0 29 7
39 17 17 15 19 15 36 0 32 -29 65 -21 106 24 42 48 56 47 27 -1 -11 -18 -27
-62 -37 -97 -20 -76 -11 -113 31 -113 30 0 51 36 65 112 12 61 22 70 71 62 29
-4 42 0 67 21 18 15 32 35 32 46 0 25 -8 24 -36 -6 -13 -14 -30 -25 -38 -25
-13 0 -13 3 0 28 18 35 18 62 -2 90 -18 26 -46 28 -68 6 -15 -14 -16 -14 -16
1 0 11 -7 15 -22 13 -18 -2 -24 -11 -26 -35 -3 -32 -32 -49 -32 -20 0 24 -40
57 -68 57 -45 -1 -82 -42 -82 -92 0 -24 -16 -48 -33 -48 -5 0 -6 30 -2 70 7
66 6 70 -13 70 -25 0 -57 -27 -77 -65 -14 -28 -15 -28 -15 -7 0 13 16 42 35
64 71 84 83 179 23 186 -19 2 -31 -3 -42 -20z m44 -43 c0 -26 -39 -115 -51
-115 -8 0 6 72 22 113 14 34 29 35 29 2z m25 -155 c3 -5 1 -10 -4 -10 -6 0
-11 5 -11 10 0 6 2 10 4 10 3 0 8 -4 11 -10z m140 -10 c-4 -6 0 -21 9 -34 12
-20 13 -27 2 -41 -19 -26 -46 -12 -46 24 0 40 9 61 27 61 8 0 11 -5 8 -10z
m195 -18 c0 -29 -24 -72 -41 -72 -13 0 -11 74 3 88 21 21 38 14 38 -16z m-146
-7 c3 -8 1 -15 -3 -15 -5 0 -11 7 -15 15 -3 8 -1 15 3 15 5 0 11 -7 15 -15z
m85 -89 c1 -4 -6 -6 -14 -2 -16 6 -20 -5 -29 -89 -9 -72 -29 -85 -24 -15 5 66
48 162 59 133 4 -10 8 -22 8 -27z"/>
<path d="M476 680 c-69 -21 -102 -100 -56 -133 19 -13 18 -14 -15 -30 -56 -27
-60 -100 -8 -134 59 -39 263 -14 263 31 0 22 -9 24 -48 10 -20 -7 -67 -13
-103 -14 -53 0 -69 4 -84 20 -16 18 -17 21 -1 45 15 23 29 29 81 37 30 5 32
38 2 38 -32 0 -61 32 -52 59 7 23 38 34 81 29 26 -3 29 -7 29 -37 0 -37 17
-50 40 -31 17 14 20 53 5 80 -10 18 -60 41 -89 39 -9 0 -29 -5 -45 -9z"/>
<path d="M893 679 c-37 -11 -73 -52 -73 -84 0 -33 34 -71 82 -90 53 -20 78
-42 78 -66 0 -23 -29 -39 -72 -39 -44 0 -61 12 -62 47 -1 21 -6 28 -21 28 -16
0 -21 -8 -23 -36 -4 -50 23 -72 96 -77 48 -3 63 0 92 20 28 19 36 31 38 62 4
48 -9 63 -84 96 -34 16 -64 35 -67 45 -17 42 43 76 97 55 23 -8 27 -15 24 -35
-7 -35 19 -56 38 -30 48 65 -47 134 -143 104z"/>
<path d="M690 501 c-22 -4 -36 -12 -38 -24 -3 -16 3 -18 55 -15 50 3 58 6 58
23 0 22 -19 26 -75 16z"/>
</g>
</svg>
